<?xml version="1.0" encoding="UTF-8"?>
<svg width="1321px" height="456px" viewBox="0 0 1321 456" version="1.1" xmlns="http://www.w3.org/2000/svg" xmlns:xlink="http://www.w3.org/1999/xlink">
    <title>add-to-cart</title>
    <g id="add-to-cart" stroke="none" stroke-width="1" fill="none" fill-rule="evenodd">
        <rect id="Rectangle" fill="#B0FFAE" x="0" y="0" width="1321" height="457" rx="80"></rect>
        <g id="Group-2" transform="translate(411.000000, 91.000000)">
            <g id="Group" stroke="#000000" stroke-linecap="round" stroke-linejoin="round" stroke-width="32">
                <g id="cart-outline">
                    <ellipse id="Oval" cx="99.7277875" cy="262.5" rx="12.4659734" ry="12.5"></ellipse>
                    <ellipse id="Oval" cx="274.251416" cy="262.5" rx="12.4659734" ry="12.5"></ellipse>
                    <polyline id="Path" points="0 0 49.8638938 0 87.2618141 212.5 286.717389 212.5"></polyline>
                    <path d="M87.2618141,162.499998 L281.60634,162.499998 C284.578797,162.502075 287.139114,160.399174 287.722458,157.476562 L310.16121,44.9765625 C310.527859,43.1396237 310.053423,41.2346387 308.868557,39.7862161 C307.683691,38.3377935 305.913361,37.4986958 304.045092,37.4999985 L62.3298672,37.4999985" id="Path"></path>
                </g>
            </g>
            <path d="M440.347447,70.25 C442.556586,70.25 444.347447,72.040861 444.347447,74.25 L444.346578,126.249 L496.218245,126.25 C498.427384,126.25 500.218245,128.040861 500.218245,130.25 L500.218245,145.25 C500.218245,147.459139 498.427384,149.25 496.218245,149.25 L444.346578,149.25 L444.347447,201.25 C444.347447,203.459139 442.556586,205.25 440.347447,205.25 L425.400511,205.25 C423.191372,205.25 421.400511,203.459139 421.400511,201.25 L421.399578,149.25 L369.530578,149.25 C367.321439,149.25 365.530578,147.459139 365.530578,145.25 L365.530578,130.25 C365.530578,128.040861 367.321439,126.25 369.530578,126.25 L421.399578,126.25 L421.400511,74.25 C421.400511,72.040861 423.191372,70.25 425.400511,70.25 L440.347447,70.25 Z" id="Combined-Shape" fill="#000000"></path>
        </g>
    </g>
</svg>