<?xml version="1.0" encoding="UTF-8"?>
<svg width="20px" height="20px" viewBox="0 0 20 20" version="1.1" xmlns="http://www.w3.org/2000/svg" xmlns:xlink="http://www.w3.org/1999/xlink">
    <title>star-outline</title>
    <g id="star-outline" stroke="none" stroke-width="1" fill="none" fill-rule="evenodd" stroke-linecap="round">
        <path d="M9.40979636,12.3928395 L5.99806016,14.918366 C5.846256,15.0278856 5.64066418,15.0271423 5.48966442,14.9165279 C5.33866466,14.8059135 5.27695038,14.6108426 5.33705486,14.4341487 L6.6876058,10.455158 L3.18737411,8.06754927 C3.0317557,7.96151648 2.96358396,7.76711297 3.01914342,7.58781032 C3.07470288,7.40850766 3.2410709,7.28601005 3.42969784,7.28551703 L7.74790675,7.28551703 C8.5442408,4.74386259 8.96160522,3.41413996 9,3.29634914 C9.05759217,3.1196629 9.27413389,3 9.46086629,3 C9.64759869,3 9.76200054,3.1196629 9.81959271,3.29634914" id="Path-Copy-6" stroke="#FED600" fill="#FFFFFF" fill-rule="nonzero"></path>
        <path d="M15.7990755,12.3928395 L12.3362693,14.918366 C12.1844652,15.0278856 11.9788734,15.0271423 11.8278736,14.9165279 C11.6768738,14.8059135 11.6151596,14.6108426 11.675264,14.4341487 L13.025815,10.455158 L9.52558329,8.06754927 C9.36996487,7.96151648 9.30179314,7.76711297 9.3573526,7.58781032 C9.41291205,7.40850766 9.57928008,7.28601005 9.76790702,7.28551703 L14.0861159,7.28551703 L15.3892791,3.29634914 C15.4468713,3.1196629 15.6123431,2.99999448 15.7990755,2.99999448 C15.9858079,2.99999448 15.7414833,2.99639871 15.7990755,3.17308495" id="Path-Copy-5" stroke="#FED600" fill="#FFFFFF" fill-rule="nonzero" transform="translate(12.604436, 8.999997) scale(-1, 1) translate(-12.604436, -8.999997) "></path>
    </g>
</svg>