<?xml version="1.0" encoding="UTF-8"?>
<svg width="20px" height="20px" viewBox="0 0 20 20" version="1.1" xmlns="http://www.w3.org/2000/svg" xmlns:xlink="http://www.w3.org/1999/xlink">
    <title>icons/star-outline</title>
    <defs>
        <linearGradient x1="50%" y1="0%" x2="50%" y2="100%" id="linearGradient-1">
            <stop stop-color="#FEDC00" offset="0%"></stop>
            <stop stop-color="#FCB700" offset="100%"></stop>
        </linearGradient>
    </defs>
    <g id="icons/star-outline" stroke="none" stroke-width="1" fill="none" fill-rule="evenodd">
        <path d="M14.1764969,15.9987117 C14.0858213,15.9990638 13.9973461,15.970947 13.9236724,15.918366 L10.4608663,13.4212192 L6.99806016,15.918366 C6.846256,16.0278856 6.64066418,16.0271423 6.48966442,15.9165279 C6.33866466,15.8059135 6.27695038,15.6108426 6.33705486,15.4341487 L7.6876058,11.455158 L4.18737411,9.06754927 C4.0317557,8.96151648 3.96358396,8.76711297 4.01914342,8.58781032 C4.07470288,8.40850766 4.2410709,8.28601005 4.42969784,8.28551703 L8.74790675,8.28551703 L10.0510699,4.29634914 C10.1086621,4.1196629 10.2741339,4 10.4608663,4 C10.6475987,4 10.8130705,4.1196629 10.8706626,4.29634914 L12.1738258,8.28685612 L16.4920347,8.28685612 C16.6809101,8.2867636 16.84782,8.4090595 16.9037345,8.58851094 C16.959649,8.76796238 16.8915269,8.9627154 16.7357047,9.06888836 L13.2341268,11.455158 L14.58387,15.4330775 C14.6282361,15.5637333 14.606673,15.7076433 14.5259318,15.8197519 C14.4451905,15.9318605 14.31514,15.9984646 14.1764969,15.9987117 Z" id="Path" stroke="url(#linearGradient-1)" fill-rule="nonzero"></path>
    </g>
</svg>